# xmcd
# Copyright (c) 1998 CDDB Inc.
#
# Track frame offsets:
#	150
#	20208
#	41189
#	63027
#	76324
#	114110
#	130403
#	151756
#	174896
#	192263
#
# Disc length: 2924 seconds
#
# Revision: 0
# Processed by: cddbd v1.4PL0 Copyright (c) Steve Scherf et al.
# Submitted via: audiograbber 1.70
#
DISCID=760b6a0a
DTITLE=Виктор Ночной - Снег
DYEAR=1900
DGENRE=
TTITLE0=Снег
TTITLE1=Дни вдвоём
TTITLE2=Белый снег
TTITLE3=Первый бал
TTITLE4=Первый снег
TTITLE5=В ожидании весны
TTITLE6=Месяц май
TTITLE7=Грустная
TTITLE8=Нью-Йорк
TTITLE9=Я забуду про тебя
EXTD=
EXTT0=
EXTT1=
EXTT2=
EXTT3=
EXTT4=
EXTT5=
EXTT6=
EXTT7=
EXTT8=
EXTT9=
PLAYORDER=
